<?xml version="1.0" encoding="UTF-8"?>
<svg width="1900" height="1040" viewBox="0 0 1900 1040" xmlns="http://www.w3.org/2000/svg">
<defs><marker id="arrow" markerWidth="10" markerHeight="10" refX="8" refY="3" orient="auto" markerUnits="strokeWidth"><path d="M0,0 L0,6 L9,3 z" fill="#667085"/></marker><style>
text{font-family:"PingFang SC","Microsoft YaHei",Arial,sans-serif}
.title{font-size:34px;font-weight:700;fill:#1f2328}.subtitle{font-size:18px;fill:#667085}
.section{font-size:18px;font-weight:700;fill:#1f2328}.lane-title{font-size:16px;font-weight:700;fill:#1f2328}
.box-title{font-size:15px;font-weight:700;fill:#1f2328}.body{font-size:14px;fill:#344054}.small{font-size:12px;fill:#667085}.label{font-size:11px;fill:#667085}
.node{fill:#ffffff;stroke:#d6d9dd;stroke-width:2}.soft{fill:#eef1f4;stroke:#d6d9dd;stroke-width:2}.store{fill:#eef1f4;stroke:#d6d9dd;stroke-width:2}.warn{fill:#fff7ed;stroke:#fed7aa;stroke-width:2}.ok{fill:#f0fdf4;stroke:#bbf7d0;stroke-width:2}.blue{fill:#f8fbff;stroke:#bfdbfe;stroke-width:2}.term{fill:#ffffff;stroke:#d6d9dd;stroke-width:2;stroke-dasharray:6 4}.arrow{fill:none;stroke:#667085;stroke-width:2;marker-end:url(#arrow)}

</style></defs>
<rect width="1900" height="1040" fill="#f6f7f8"/>
<rect x="30" y="40" width="1840" height="420" rx="12" fill="#ffffff" stroke="#d6d9dd" /><text x="60" y="82" class="section" >一、写入路径：外部数据进入本地事实库</text><text x="60" y="108" class="small" >SQLite 是事实基准；VecLite 是可重建索引，不作为唯一事实来源。</text><rect x="90" y="155" width="180" height="72" rx="12" class="node" /><text x="108" y="185" class="box-title" >用户确认</text><text x="108" y="211" class="small" >计划 / 手动执行 / 观察</text><rect x="90" y="280" width="180" height="72" rx="12" class="node" /><text x="108" y="310" class="box-title" >市场数据</text><text x="108" y="336" class="small" >行情 / 估值 / 流动性</text><rect x="90" y="405" width="180" height="40" rx="12" class="node" /><text x="108" y="435" class="box-title" >普通配置</text><text x="108" y="461" class="small" >能力圈 / 阈值</text><rect x="370" y="155" width="210" height="72" rx="12" class="node" /><text x="388" y="185" class="box-title" >操作确认服务</text><text x="388" y="211" class="small" >记录线下动作</text><rect x="370" y="280" width="210" height="72" rx="12" class="node" /><text x="388" y="310" class="box-title" >行情归档服务</text><text x="388" y="336" class="small" >生成市场快照</text><rect x="370" y="405" width="210" height="40" rx="12" class="node" /><text x="388" y="435" class="box-title" >配置保存服务</text><text x="388" y="461" class="small" >不直接改正式规则</text><ellipse cx="795.0" cy="160" rx="105.0" ry="10" class="store"/><rect x="690" y="160" width="210" height="64" class="store"/><ellipse cx="795.0" cy="224" rx="105.0" ry="10" class="store"/><text x="795.0" y="186" class="box-title" text-anchor="middle" >操作确认记录</text><text x="795.0" y="206" class="small" text-anchor="middle" >operation_confirmations</text><ellipse cx="795.0" cy="285" rx="105.0" ry="10" class="store"/><rect x="690" y="285" width="210" height="64" class="store"/><ellipse cx="795.0" cy="349" rx="105.0" ry="10" class="store"/><text x="795.0" y="311" class="box-title" text-anchor="middle" >市场快照</text><text x="795.0" y="331" class="small" text-anchor="middle" >market_snapshots</text><ellipse cx="795.0" cy="400" rx="105.0" ry="10" class="store"/><rect x="690" y="400" width="210" height="64" class="store"/><ellipse cx="795.0" cy="464" rx="105.0" ry="10" class="store"/><text x="795.0" y="426" class="box-title" text-anchor="middle" >普通配置</text><text x="795.0" y="446" class="small" text-anchor="middle" >user_settings / config</text><ellipse cx="1085.0" cy="115" rx="105.0" ry="10" class="store"/><rect x="980" y="115" width="210" height="64" class="store"/><ellipse cx="1085.0" cy="179" rx="105.0" ry="10" class="store"/><text x="1085.0" y="141" class="box-title" text-anchor="middle" >交易流水</text><text x="1085.0" y="161" class="small" text-anchor="middle" >position_transactions</text><ellipse cx="1085.0" cy="222" rx="105.0" ry="10" class="store"/><rect x="980" y="222" width="210" height="64" class="store"/><ellipse cx="1085.0" cy="286" rx="105.0" ry="10" class="store"/><text x="1085.0" y="248" class="box-title" text-anchor="middle" >账户快照</text><text x="1085.0" y="268" class="small" text-anchor="middle" >portfolio_snapshots</text><ellipse cx="1085.0" cy="329" rx="105.0" ry="10" class="store"/><rect x="980" y="329" width="210" height="64" class="store"/><ellipse cx="1085.0" cy="393" rx="105.0" ry="10" class="store"/><text x="1085.0" y="355" class="box-title" text-anchor="middle" >持仓记录</text><text x="1085.0" y="375" class="small" text-anchor="middle" >positions</text><ellipse cx="1085.0" cy="410" rx="105.0" ry="10" class="store"/><rect x="980" y="410" width="210" height="64" class="store"/><ellipse cx="1085.0" cy="474" rx="105.0" ry="10" class="store"/><text x="1085.0" y="436" class="box-title" text-anchor="middle" >快照持仓明细</text><text x="1085.0" y="456" class="small" text-anchor="middle" >position_snapshots</text><ellipse cx="1635.0" cy="160" rx="105.0" ry="10" class="store"/><rect x="1530" y="160" width="210" height="64" class="store"/><ellipse cx="1635.0" cy="224" rx="105.0" ry="10" class="store"/><text x="1635.0" y="186" class="box-title" text-anchor="middle" >原始情报</text><text x="1635.0" y="206" class="small" text-anchor="middle" >intelligence_items</text><ellipse cx="1635.0" cy="285" rx="105.0" ry="10" class="store"/><rect x="1530" y="285" width="210" height="64" class="store"/><ellipse cx="1635.0" cy="349" rx="105.0" ry="10" class="store"/><text x="1635.0" y="311" class="box-title" text-anchor="middle" >结构化情报摘要</text><text x="1635.0" y="331" class="small" text-anchor="middle" >intelligence_summary</text><ellipse cx="1635.0" cy="400" rx="105.0" ry="10" class="store"/><rect x="1530" y="400" width="210" height="64" class="store"/><ellipse cx="1635.0" cy="464" rx="105.0" ry="10" class="store"/><text x="1635.0" y="426" class="box-title" text-anchor="middle" >VecLite 索引</text><text x="1635.0" y="446" class="small" text-anchor="middle" >rag_chunks 可重建</text><rect x="1280" y="155" width="190" height="72" rx="12" class="node" /><text x="1298" y="185" class="box-title" >情报来源</text><text x="1298" y="211" class="small" >公告 / 新闻 / 研报</text><rect x="1280" y="280" width="190" height="72" rx="12" class="node" /><text x="1298" y="310" class="box-title" >情报清洗</text><text x="1298" y="336" class="small" >标注 / 摘要 / 去重</text><path d="M 270 191 L 370 191" class="arrow"/><rect x="256.0" y="166.0" width="128" height="22" rx="11" fill="#eef1f4" stroke="#d6d9dd" /><text x="320.0" y="183.0" class="label" text-anchor="middle" >提交</text><path d="M 580 191 L 690 191" class="arrow"/><rect x="571.0" y="166.0" width="128" height="22" rx="11" fill="#eef1f4" stroke="#d6d9dd" /><text x="635.0" y="183.0" class="label" text-anchor="middle" >写入</text><path d="M 900 191 L 980 146" class="arrow" stroke-dasharray="6 5"/><rect x="876.0" y="143.5" width="128" height="22" rx="11" fill="#eef1f4" stroke="#d6d9dd" /><text x="940.0" y="160.5" class="label" text-anchor="middle" >仅手动执行</text><path d="M 1085 189 L 1085 212" class="arrow" stroke-dasharray="6 5"/><rect x="1068" y="188" width="128" height="22" rx="11" fill="#eef1f4" stroke="#d6d9dd" /><text x="1132" y="205" class="label" text-anchor="middle" >生成快照</text><path d="M 1085 189 L 1085 319" class="arrow" stroke-dasharray="6 5"/><rect x="1074" y="245" width="128" height="22" rx="11" fill="#eef1f4" stroke="#d6d9dd" /><text x="1138" y="262" class="label" text-anchor="middle" >更新持仓</text><path d="M 1085 383 L 1085 400" class="arrow" stroke-dasharray="6 5"/><rect x="1068" y="380" width="128" height="22" rx="11" fill="#eef1f4" stroke="#d6d9dd" /><text x="1132" y="397" class="label" text-anchor="middle" >快照明细</text><path d="M 270 316 L 370 316" class="arrow"/><rect x="256.0" y="291.0" width="128" height="22" rx="11" fill="#eef1f4" stroke="#d6d9dd" /><text x="320.0" y="308.0" class="label" text-anchor="middle" >归档</text><path d="M 580 316 L 690 316" class="arrow"/><rect x="571.0" y="291.0" width="128" height="22" rx="11" fill="#eef1f4" stroke="#d6d9dd" /><text x="635.0" y="308.0" class="label" text-anchor="middle" >写入</text><path d="M 270 425 L 370 425" class="arrow"/><rect x="256.0" y="400.0" width="128" height="22" rx="11" fill="#eef1f4" stroke="#d6d9dd" /><text x="320.0" y="417.0" class="label" text-anchor="middle" >保存</text><path d="M 580 425 L 690 425" class="arrow"/><rect x="571.0" y="400.0" width="128" height="22" rx="11" fill="#eef1f4" stroke="#d6d9dd" /><text x="635.0" y="417.0" class="label" text-anchor="middle" >写入</text><path d="M 1470 191 L 1530 191" class="arrow"/><rect x="1436.0" y="166.0" width="128" height="22" rx="11" fill="#eef1f4" stroke="#d6d9dd" /><text x="1500.0" y="183.0" class="label" text-anchor="middle" >采集</text><path d="M 1470 316 L 1530 316" class="arrow"/><rect x="1436.0" y="291.0" width="128" height="22" rx="11" fill="#eef1f4" stroke="#d6d9dd" /><text x="1500.0" y="308.0" class="label" text-anchor="middle" >写摘要</text><path d="M 1635 349 L 1635 390" class="arrow"/><rect x="1571.0" y="344.5" width="128" height="22" rx="11" fill="#eef1f4" stroke="#d6d9dd" /><text x="1635.0" y="361.5" class="label" text-anchor="middle" >建索引</text><rect x="30" y="510" width="1840" height="420" rx="12" fill="#ffffff" stroke="#d6d9dd" /><text x="60" y="552" class="section" >二、读取路径：工作流读取事实并生成可展示结果</text><text x="60" y="578" class="small" >规则裁决后写入决策记录、证据引用和审计事件，最后返回前端 DTO。</text><rect x="90" y="650" width="230" height="72" rx="12" class="node" /><text x="108" y="680" class="box-title" >WorkflowContext</text><text x="108" y="706" class="small" >request_id / symbol / workflow_type</text><rect x="420" y="650" width="230" height="72" rx="12" class="node" /><text x="438" y="680" class="box-title" >状态与证据读取</text><text x="438" y="706" class="small" >SnapshotNode + EvidenceNode</text><rect x="750" y="650" width="230" height="72" rx="12" class="node" /><text x="768" y="680" class="box-title" >分析与规则裁决</text><text x="768" y="706" class="small" >DeepSeek 分析 + 规则优先</text><rect x="1080" y="650" width="230" height="72" rx="12" class="node" /><text x="1098" y="680" class="box-title" >保存正式结果</text><text x="1098" y="706" class="small" >决策 / 证据 / 审计</text><rect x="1410" y="650" width="230" height="72" rx="12" class="node" /><text x="1428" y="680" class="box-title" >API DTO</text><text x="1428" y="706" class="small" >Handler 组装后返回</text><ellipse cx="515.0" cy="825" rx="95.0" ry="10" class="store"/><rect x="420" y="825" width="190" height="64" class="store"/><ellipse cx="515.0" cy="889" rx="95.0" ry="10" class="store"/><text x="515.0" y="851" class="box-title" text-anchor="middle" >决策记录表</text><text x="515.0" y="871" class="small" text-anchor="middle" >decision_records</text><ellipse cx="775.0" cy="825" rx="95.0" ry="10" class="store"/><rect x="680" y="825" width="190" height="64" class="store"/><ellipse cx="775.0" cy="889" rx="95.0" ry="10" class="store"/><text x="775.0" y="851" class="box-title" text-anchor="middle" >证据引用</text><text x="775.0" y="871" class="small" text-anchor="middle" >evidence_refs</text><ellipse cx="1035.0" cy="825" rx="95.0" ry="10" class="store"/><rect x="940" y="825" width="190" height="64" class="store"/><ellipse cx="1035.0" cy="889" rx="95.0" ry="10" class="store"/><text x="1035.0" y="851" class="box-title" text-anchor="middle" >审计事件</text><text x="1035.0" y="871" class="small" text-anchor="middle" >audit_events</text><ellipse cx="1280.0" cy="825" rx="95.0" ry="10" class="store"/><rect x="1185" y="825" width="190" height="64" class="store"/><ellipse cx="1280.0" cy="889" rx="95.0" ry="10" class="store"/><text x="1280.0" y="851" class="box-title" text-anchor="middle" >来源验证</text><text x="1280.0" y="871" class="small" text-anchor="middle" >source_verifications</text><path d="M 320 686 L 420 686" class="arrow"/><rect x="306.0" y="661.0" width="128" height="22" rx="11" fill="#eef1f4" stroke="#d6d9dd" /><text x="370.0" y="678.0" class="label" text-anchor="middle" >读取请求上下文</text><path d="M 650 686 L 750 686" class="arrow"/><rect x="636.0" y="661.0" width="128" height="22" rx="11" fill="#eef1f4" stroke="#d6d9dd" /><text x="700.0" y="678.0" class="label" text-anchor="middle" >组装事实</text><path d="M 980 686 L 1080 686" class="arrow"/><rect x="966.0" y="661.0" width="128" height="22" rx="11" fill="#eef1f4" stroke="#d6d9dd" /><text x="1030.0" y="678.0" class="label" text-anchor="middle" >生成裁决</text><path d="M 1310 686 L 1410 686" class="arrow"/><rect x="1296.0" y="661.0" width="128" height="22" rx="11" fill="#eef1f4" stroke="#d6d9dd" /><text x="1360.0" y="678.0" class="label" text-anchor="middle" >组装视图</text><path d="M 535 650 L 1085 296" class="arrow" stroke-dasharray="6 5"/><rect x="726" y="530" width="128" height="22" rx="11" fill="#eef1f4" stroke="#d6d9dd" /><text x="790" y="547" class="label" text-anchor="middle" >读账户/持仓快照</text><path d="M 535 650 L 795 460" class="arrow" stroke-dasharray="6 5"/><rect x="601" y="530" width="128" height="22" rx="11" fill="#eef1f4" stroke="#d6d9dd" /><text x="665" y="547" class="label" text-anchor="middle" >读市场/规则</text><path d="M 535 650 L 1635 460" class="arrow" stroke-dasharray="6 5"/><rect x="1021" y="530" width="128" height="22" rx="11" fill="#eef1f4" stroke="#d6d9dd" /><text x="1085" y="547" class="label" text-anchor="middle" >辅助检索证据</text><path d="M 1195 722 L 515 805" class="arrow"/><rect x="791.0" y="738.5" width="128" height="22" rx="11" fill="#eef1f4" stroke="#d6d9dd" /><text x="855.0" y="755.5" class="label" text-anchor="middle" >写决策</text><path d="M 1195 722 L 775 805" class="arrow"/><rect x="921.0" y="738.5" width="128" height="22" rx="11" fill="#eef1f4" stroke="#d6d9dd" /><text x="985.0" y="755.5" class="label" text-anchor="middle" >写证据引用</text><path d="M 1195 722 L 1035 805" class="arrow"/><rect x="1051.0" y="738.5" width="128" height="22" rx="11" fill="#eef1f4" stroke="#d6d9dd" /><text x="1115.0" y="755.5" class="label" text-anchor="middle" >写审计</text><path d="M 1195 722 L 1280 805" class="arrow"/><rect x="1173.5" y="738.5" width="128" height="22" rx="11" fill="#eef1f4" stroke="#d6d9dd" /><text x="1237.5" y="755.5" class="label" text-anchor="middle" >写信源验证</text><path d="M 1035 805 L 1525 722" class="arrow" stroke-dasharray="6 5"/><rect x="1216" y="739" width="128" height="22" rx="11" fill="#eef1f4" stroke="#d6d9dd" /><text x="1280" y="756" class="label" text-anchor="middle" >审计摘要</text><rect x="84" y="940" width="700" height="54" rx="12" fill="#eef1f4" stroke="#d6d9dd" /><text x="108" y="972" class="box-title" >图例</text><text x="170" y="972" class="small" >实线：写入或主流程；虚线：读取依赖或约束；圆柱：SQLite 事实表 / VecLite 派生索引。</text><rect x="1400" y="805" width="340" height="86" rx="12" fill="#eef1f4" stroke="#d6d9dd" /><text x="1425" y="835" class="box-title" >边界约束</text><text x="1425" y="860" class="small" >前端不访问 SQLite / VecLite；用户确认只记录线下动作。</text><text x="1425" y="878" class="small" >规则变更：rule_proposals → gatekeeper_audits → pending_final_confirm → rule_versions。</text>
</svg>
