<?xml version="1.0" encoding="UTF-8"?>
<svg width="3340" height="1120" viewBox="0 0 3340 1120" xmlns="http://www.w3.org/2000/svg">
<defs><marker id="arrow" markerWidth="10" markerHeight="10" refX="8" refY="3" orient="auto" markerUnits="strokeWidth"><path d="M0,0 L0,6 L9,3 z" fill="#667085"/></marker><style>
text{font-family:"PingFang SC","Microsoft YaHei",Arial,sans-serif}
.title{font-size:34px;font-weight:700;fill:#1f2328}.subtitle{font-size:18px;fill:#667085}
.section{font-size:18px;font-weight:700;fill:#1f2328}.lane-title{font-size:16px;font-weight:700;fill:#1f2328}
.box-title{font-size:15px;font-weight:700;fill:#1f2328}.body{font-size:14px;fill:#344054}.small{font-size:12px;fill:#667085}.label{font-size:11px;fill:#667085}
.node{fill:#ffffff;stroke:#d6d9dd;stroke-width:2}.soft{fill:#eef1f4;stroke:#d6d9dd;stroke-width:2}.store{fill:#eef1f4;stroke:#d6d9dd;stroke-width:2}.warn{fill:#fff7ed;stroke:#fed7aa;stroke-width:2}.ok{fill:#f0fdf4;stroke:#bbf7d0;stroke-width:2}.blue{fill:#f8fbff;stroke:#bfdbfe;stroke-width:2}.term{fill:#ffffff;stroke:#d6d9dd;stroke-width:2;stroke-dasharray:6 4}.arrow{fill:none;stroke:#667085;stroke-width:2;marker-end:url(#arrow)}

</style></defs>
<rect width="3340" height="1120" fill="#f6f7f8"/>
<rect x="28" y="28" width="3284" height="886" rx="18" fill="#ffffff" stroke="#d6d9dd" /><rect x="28" y="28" width="3284" height="112" rx="0" fill="#eef1f4" stroke="#d6d9dd" /><text x="48" y="76" class="lane-title" >前端 / 用户触发</text><text x="48" y="98" class="small" >页面操作、定时刷新、用户确认</text><rect x="28" y="140" width="3284" height="136" rx="0" fill="#ffffff" stroke="#d6d9dd" /><text x="48" y="188" class="lane-title" >应用层 / Handler</text><text x="48" y="210" class="small" >接收请求、参数校验、创建上下文、返回结构化 DTO</text><rect x="28" y="276" width="3284" height="340" rx="0" fill="#ffffff" stroke="#d6d9dd" /><text x="48" y="324" class="lane-title" >Eino Graph</text><text x="48" y="346" class="small" >上带：编排判断；下带：分析汇合、裁决和记录</text><rect x="28" y="616" width="3284" height="112" rx="0" fill="#ffffff" stroke="#d6d9dd" /><text x="48" y="664" class="lane-title" >领域规则与依赖</text><text x="48" y="686" class="small" >铁律规则、SQLite、VecLite、DeepSeek、证据引用、审计写入</text><rect x="28" y="728" width="3284" height="186" rx="0" fill="#eef1f4" stroke="#d6d9dd" /><text x="48" y="776" class="lane-title" >异常终态池</text><text x="48" y="798" class="small" >判断未通过时就近进入，不再回连主流程</text><line x1="190" y1="438" x2="3290" y2="438" stroke="#d6d9dd" stroke-dasharray="8 6"/><text x="214" y="316" class="small" >编排判断带</text><text x="214" y="476" class="small" >分析裁决带</text><rect x="440" y="152" width="150" height="64" rx="12" class="node" /><text x="458" y="182" class="box-title" >接收请求</text><text x="458" y="208" class="small" >HTTP Handler</text><rect x="650" y="152" width="150" height="64" rx="12" class="node" /><text x="668" y="182" class="box-title" >参数校验</text><text x="668" y="208" class="small" >用户 / 标的 / 场景</text><rect x="865" y="152" width="175" height="64" rx="12" class="node" /><text x="883" y="182" class="box-title" >构建上下文</text><text x="883" y="208" class="small" >WorkflowContext</text><rect x="1110" y="300" width="150" height="64" rx="12" class="node" /><text x="1128" y="330" class="box-title" >读取快照</text><text x="1128" y="356" class="small" >账户 / 持仓 / 行情</text><polygon points="1383,288 1441,332 1383,376 1325,332" class="soft"/><text x="1383" y="325" class="box-title" text-anchor="middle" >账户可用</text><text x="1383" y="345" class="small" text-anchor="middle" >否 → 首次使用</text><rect x="1505" y="300" width="150" height="64" rx="12" class="node" /><text x="1523" y="330" class="box-title" >能力圈检查</text><text x="1523" y="356" class="small" >范围 / 标的 / 问题</text><polygon points="1778,288 1836,332 1778,376 1720,332" class="soft"/><text x="1778" y="325" class="box-title" text-anchor="middle" >能力圈内</text><text x="1778" y="345" class="small" text-anchor="middle" >否 → 拒绝交易分析</text><rect x="1900" y="300" width="160" height="64" rx="12" class="node" /><text x="1918" y="330" class="box-title" >检索证据</text><text x="1918" y="356" class="small" >摘要 / 片段 / 信源</text><polygon points="2186,288 2244,332 2186,376 2128,332" class="soft"/><text x="2186" y="325" class="box-title" text-anchor="middle" >证据足够</text><text x="2186" y="345" class="small" text-anchor="middle" >否 → 信息不足</text><polygon points="2366,288 2424,332 2366,376 2308,332" class="soft"/><text x="2366" y="325" class="box-title" text-anchor="middle" >多源满足</text><text x="2366" y="345" class="small" text-anchor="middle" >否 → 冻结观察</text><rect x="2150" y="464" width="160" height="64" rx="12" class="node" /><text x="2168" y="494" class="box-title" >价值分析</text><text x="2168" y="520" class="small" >DeepSeek</text><rect x="2390" y="464" width="160" height="64" rx="12" class="node" /><text x="2408" y="494" class="box-title" >趋势风控</text><text x="2408" y="520" class="small" >DeepSeek</text><rect x="2570" y="496" width="170" height="64" rx="12" class="node" /><text x="2588" y="526" class="box-title" >规则裁决</text><text x="2588" y="552" class="small" >铁律优先</text><rect x="2785" y="496" width="150" height="64" rx="12" class="node" /><text x="2803" y="526" class="box-title" >保存记录</text><text x="2803" y="552" class="small" >SQLite</text><polygon points="3058,484 3116,528 3058,572 3000,528" class="soft"/><text x="3058" y="521" class="box-title" text-anchor="middle" >记录成功</text><text x="3058" y="541" class="small" text-anchor="middle" >否 → 不展示</text><rect x="2978" y="152" width="160" height="64" rx="12" class="node" /><text x="2996" y="182" class="box-title" >返回 DTO</text><text x="2996" y="208" class="small" >结构化视图</text><rect x="1300" y="762" width="166" height="58" rx="12" class="term" /><text x="1318" y="792" class="box-title" >首次使用</text><text x="1318" y="818" class="small" >引导配置账户</text><rect x="1688" y="762" width="180" height="58" rx="12" class="term" /><text x="1706" y="792" class="box-title" >拒绝交易类分析</text><text x="1706" y="818" class="small" >不执行分析节点</text><rect x="2100" y="762" width="172" height="58" rx="12" class="term" /><text x="2118" y="792" class="box-title" >信息不足</text><text x="2118" y="818" class="small" >暂停交易建议</text><rect x="2274" y="762" width="184" height="58" rx="12" class="term" /><text x="2292" y="792" class="box-title" >冻结观察</text><text x="2292" y="818" class="small" >等待更多证据</text><rect x="2960" y="842" width="196" height="58" rx="12" class="term" /><text x="2978" y="872" class="box-title" >不展示正式建议</text><text x="2978" y="898" class="small" >仅保留审计提示</text><path d="M 590 184 L 650 184" class="arrow"/><path d="M 800 184 L 865 184" class="arrow"/><path d="M 1040 184 L 1110 314" class="arrow"/><rect x="1011.0" y="224.0" width="128" height="22" rx="11" fill="#eef1f4" stroke="#d6d9dd" /><text x="1075.0" y="241.0" class="label" text-anchor="middle" >进入 Graph</text><path d="M 1260 332 L 1325 332" class="arrow"/><path d="M 1441 332 L 1505 332" class="arrow"/><rect x="1409.0" y="307.0" width="128" height="22" rx="11" fill="#eef1f4" stroke="#d6d9dd" /><text x="1473.0" y="324.0" class="label" text-anchor="middle" >是</text><path d="M 1655 332 L 1720 332" class="arrow"/><path d="M 1836 332 L 1900 332" class="arrow"/><rect x="1804.0" y="307.0" width="128" height="22" rx="11" fill="#eef1f4" stroke="#d6d9dd" /><text x="1868.0" y="324.0" class="label" text-anchor="middle" >是</text><path d="M 2060 332 L 2128 332" class="arrow"/><path d="M 2244 332 L 2308 332" class="arrow"/><rect x="2212.0" y="307.0" width="128" height="22" rx="11" fill="#eef1f4" stroke="#d6d9dd" /><text x="2276.0" y="324.0" class="label" text-anchor="middle" >是</text><path d="M 2366 376 L 2366 458" class="arrow"/><rect x="2302.0" y="392.0" width="128" height="22" rx="11" fill="#eef1f4" stroke="#d6d9dd" /><text x="2366.0" y="409.0" class="label" text-anchor="middle" >是</text><path d="M 2310 496 L 2390 496" class="arrow"/><rect x="2286.0" y="471.0" width="128" height="22" rx="11" fill="#eef1f4" stroke="#d6d9dd" /><text x="2350.0" y="488.0" class="label" text-anchor="middle" >并行</text><path d="M 2230 528 L 2570 528" class="arrow"/><rect x="2336.0" y="503.0" width="128" height="22" rx="11" fill="#eef1f4" stroke="#d6d9dd" /><text x="2400.0" y="520.0" class="label" text-anchor="middle" >汇合</text><path d="M 2740 528 L 2785 528" class="arrow"/><path d="M 2935 528 L 3000 528" class="arrow"/><path d="M 3058 484 L 3058 184" class="arrow"/><rect x="2994.0" y="309.0" width="128" height="22" rx="11" fill="#eef1f4" stroke="#d6d9dd" /><text x="3058.0" y="326.0" class="label" text-anchor="middle" >是</text><path d="M 1383 376 L 1383 750" class="arrow" stroke-dasharray="6 5"/><rect x="1319.0" y="538.0" width="128" height="22" rx="11" fill="#eef1f4" stroke="#d6d9dd" /><text x="1383.0" y="555.0" class="label" text-anchor="middle" >否</text><path d="M 1778 376 L 1778 750" class="arrow" stroke-dasharray="6 5"/><rect x="1714.0" y="538.0" width="128" height="22" rx="11" fill="#eef1f4" stroke="#d6d9dd" /><text x="1778.0" y="555.0" class="label" text-anchor="middle" >否</text><path d="M 2186 376 L 2186 750" class="arrow" stroke-dasharray="6 5"/><rect x="2122.0" y="538.0" width="128" height="22" rx="11" fill="#eef1f4" stroke="#d6d9dd" /><text x="2186.0" y="555.0" class="label" text-anchor="middle" >否</text><path d="M 2366 376 L 2366 750" class="arrow" stroke-dasharray="6 5"/><rect x="2302.0" y="538.0" width="128" height="22" rx="11" fill="#eef1f4" stroke="#d6d9dd" /><text x="2366.0" y="555.0" class="label" text-anchor="middle" >否</text><path d="M 3058 572 L 3058 846" class="arrow" stroke-dasharray="6 5"/><rect x="2994.0" y="684.0" width="128" height="22" rx="11" fill="#eef1f4" stroke="#d6d9dd" /><text x="3058.0" y="701.0" class="label" text-anchor="middle" >否</text><rect x="28" y="942" width="980" height="126" rx="12" fill="#ffffff" stroke="#d6d9dd" /><text x="52" y="976" class="section" >图例</text><text x="80" y="1010" class="small" >普通框=处理；菱形=判断；虚线=异常分支。</text><rect x="1660" y="942" width="1580" height="126" rx="12" fill="#ffffff" stroke="#d6d9dd" /><text x="1686" y="976" class="section" >输出 DTO</text><text x="1686" y="1002" class="small" >DashboardViewModel / DecisionDetailViewModel；DeepSeek 只输出分析观点；只有 executed_manually 更新账户。</text>
</svg>
