<?xml version="1.0" encoding="UTF-8"?>
<svg width="1440" height="960" viewBox="0 0 1440 960" xmlns="http://www.w3.org/2000/svg">
<defs><marker id="arrow" markerWidth="10" markerHeight="10" refX="8" refY="3" orient="auto" markerUnits="strokeWidth"><path d="M0,0 L0,6 L9,3 z" fill="#667085"/></marker><style>
text{font-family:"PingFang SC","Microsoft YaHei",Arial,sans-serif}
.title{font-size:34px;font-weight:700;fill:#1f2328}.subtitle{font-size:18px;fill:#667085}
.section{font-size:18px;font-weight:700;fill:#1f2328}.lane-title{font-size:16px;font-weight:700;fill:#1f2328}
.box-title{font-size:15px;font-weight:700;fill:#1f2328}.body{font-size:14px;fill:#344054}.small{font-size:12px;fill:#667085}.label{font-size:11px;fill:#667085}
.node{fill:#ffffff;stroke:#d6d9dd;stroke-width:2}.soft{fill:#eef1f4;stroke:#d6d9dd;stroke-width:2}.store{fill:#eef1f4;stroke:#d6d9dd;stroke-width:2}.warn{fill:#fff7ed;stroke:#fed7aa;stroke-width:2}.ok{fill:#f0fdf4;stroke:#bbf7d0;stroke-width:2}.blue{fill:#f8fbff;stroke:#bfdbfe;stroke-width:2}.term{fill:#ffffff;stroke:#d6d9dd;stroke-width:2;stroke-dasharray:6 4}.arrow{fill:none;stroke:#667085;stroke-width:2;marker-end:url(#arrow)}

</style></defs>
<rect width="1440" height="960" fill="#f6f7f8"/>
<rect x="40" y="40" width="1360" height="880" rx="12" fill="#ffffff" stroke="#d6d9dd" /><rect x="40" y="40" width="220" height="880" rx="12" fill="#eef1f4" stroke="#d6d9dd" /><text x="72" y="86" class="box-title" >投资纪律助手</text><rect x="300" y="76" width="740" height="96" rx="12" class="warn" /><text x="318" y="106" class="box-title" >最终裁决：继续持有，暂停新增买入</text><text x="318" y="132" class="small" >当前仓位接近上限，估值分位不低。建议保持观察。</text><rect x="300" y="204" width="740" height="94" rx="12" class="node" /><text x="318" y="234" class="box-title" >建议记录</text><text x="318" y="260" class="small" >今日第 2 条 · 待确认 · 规则版本 v3.0 · 生成于 2026-05-22 09:35</text><rect x="300" y="330" width="350" height="144" rx="12" class="node" /><text x="318" y="360" class="box-title" >禁止事项</text><text x="318" y="386" class="small" >不要新增买入或加仓。</text><text x="318" y="406" class="small" >不要因为短期波动追涨。</text><text x="318" y="426" class="small" >线下完成前不更新账户状态。</text><rect x="690" y="330" width="350" height="144" rx="12" class="node" /><text x="708" y="360" class="box-title" >账户快照</text><text x="708" y="386" class="small" >现金比例 8%</text><text x="708" y="406" class="small" >高风险仓位 18%</text><text x="708" y="426" class="small" >持仓数量 5 个</text><rect x="300" y="552" width="740" height="80" rx="12" class="node" /><text x="318" y="582" class="box-title" >判断过程</text><text x="318" y="608" class="small" >1 账户快照 → 2 证据核验 → 3 分析观点 → 4 规则裁决 → 5 审计记录</text><rect x="300" y="700" width="350" height="126" rx="12" class="node" /><text x="318" y="730" class="box-title" >价值分析师</text><text x="318" y="756" class="small" >估值处于中高分位，继续持有可以接受。</text><text x="318" y="776" class="small" >可信度：中 · 参考第 1、2 条证据</text><rect x="690" y="700" width="350" height="126" rx="12" class="node" /><text x="708" y="730" class="box-title" >趋势与风控官</text><text x="708" y="756" class="small" >趋势未破坏，但仓位纪律优先。</text><text x="708" y="776" class="small" >可信度：中 · 参考第 3 条证据</text><rect x="300" y="852" width="740" height="54" rx="12" class="node" /><text x="318" y="882" class="box-title" >审计摘要</text><text x="318" y="908" class="small" >已记录系统生成建议、正式记录保存成功。</text><rect x="1116" y="116" width="236" height="148" rx="12" class="node" /><text x="1134" y="146" class="box-title" >触发规则</text><text x="1134" y="172" class="small" >R-3 高风险仓位接近上限</text><text x="1134" y="192" class="small" >R-5 现金冗余纪律</text><text x="1134" y="212" class="small" >SOURCE 多源验证满足</text><rect x="1116" y="344" width="236" height="170" rx="12" class="node" /><text x="1134" y="374" class="box-title" >相关证据</text><text x="1134" y="400" class="small" >巨潮资讯 · A · formal</text><text x="1134" y="420" class="small" >交易所公告 · A · formal</text><text x="1134" y="440" class="small" >财经媒体 · B · formal</text><text x="1134" y="460" class="small" >社交热帖 · C · background</text><rect x="1116" y="560" width="236" height="116" rx="12" class="node" /><text x="1134" y="590" class="box-title" >下一步</text><text x="1134" y="616" class="small" >建议仍待确认。</text><text x="1134" y="636" class="small" >记录计划或线下执行结果。</text>
</svg>
